<mxfile host="drawio-plugin" modified="2021-05-05T16:31:37.244Z" agent="5.0 (X11; Linux x86_64) AppleWebKit/537.36 (KHTML, like Gecko) Chrome/87.0.4280.141 Safari/537.36" etag="vu0WVT-5DnTlMC3I086p" version="13.7.9" type="embed"><diagram id="C5RBs43oDa-KdzZeNtuy" name="Page-1"><mxGraphModel dx="992" dy="709" grid="1" gridSize="10" guides="1" tooltips="1" connect="1" arrows="1" fold="1" page="1" pageScale="1" pageWidth="827" pageHeight="1169" background="#F4F1DE" math="0" shadow="0"><root><mxCell id="WIyWlLk6GJQsqaUBKTNV-0"/><mxCell id="WIyWlLk6GJQsqaUBKTNV-1" parent="WIyWlLk6GJQsqaUBKTNV-0"/><mxCell id="dPYi-wlbRLU9GC7x9vvH-0" value="&amp;lt;&amp;lt;Interface&amp;gt;&amp;gt;&lt;br&gt;&lt;b&gt;Executor&lt;/b&gt;" style="swimlane;fontStyle=2;align=center;verticalAlign=top;childLayout=stackLayout;horizontal=1;startSize=40;horizontalStack=0;resizeParent=1;resizeParentMax=0;resizeLast=0;collapsible=1;marginBottom=0;html=1;fillColor=#F2CC8F;strokeColor=#E07A5F;fontColor=#393C56;" parent="WIyWlLk6GJQsqaUBKTNV-1" vertex="1"><mxGeometry x="185" y="60" width="160" height="70" as="geometry"/></mxCell><mxCell id="dPYi-wlbRLU9GC7x9vvH-1" value="+ get_data()" style="text;strokeColor=none;fillColor=none;align=left;verticalAlign=top;spacingLeft=4;spacingRight=4;overflow=hidden;rotatable=0;points=[[0,0.5],[1,0.5]];portConstraint=eastwest;fontColor=#393C56;" parent="dPYi-wlbRLU9GC7x9vvH-0" vertex="1"><mxGeometry y="40" width="160" height="30" as="geometry"/></mxCell><mxCell id="dPYi-wlbRLU9GC7x9vvH-2" value="CharField" style="swimlane;fontStyle=1;align=center;verticalAlign=top;childLayout=stackLayout;horizontal=1;startSize=26;horizontalStack=0;resizeParent=1;resizeParentMax=0;resizeLast=0;collapsible=1;marginBottom=0;fontColor=#393C56;fillColor=#F2CC8F;strokeColor=#E07A5F;" parent="WIyWlLk6GJQsqaUBKTNV-1" vertex="1"><mxGeometry x="10" y="14" width="100" height="86" as="geometry"/></mxCell><mxCell id="dPYi-wlbRLU9GC7x9vvH-3" value="+ text: str" style="text;strokeColor=none;fillColor=none;align=left;verticalAlign=top;spacingLeft=4;spacingRight=4;overflow=hidden;rotatable=0;points=[[0,0.5],[1,0.5]];portConstraint=eastwest;fontColor=#393C56;" parent="dPYi-wlbRLU9GC7x9vvH-2" vertex="1"><mxGeometry y="26" width="100" height="26" as="geometry"/></mxCell><mxCell id="dPYi-wlbRLU9GC7x9vvH-4" value="" style="line;strokeWidth=1;fillColor=none;align=left;verticalAlign=middle;spacingTop=-1;spacingLeft=3;spacingRight=3;rotatable=0;labelPosition=right;points=[];portConstraint=eastwest;labelBackgroundColor=#F4F1DE;strokeColor=#E07A5F;fontColor=#393C56;" parent="dPYi-wlbRLU9GC7x9vvH-2" vertex="1"><mxGeometry y="52" width="100" height="8" as="geometry"/></mxCell><mxCell id="dPYi-wlbRLU9GC7x9vvH-5" value="+ get_data(): str" style="text;strokeColor=none;fillColor=none;align=left;verticalAlign=top;spacingLeft=4;spacingRight=4;overflow=hidden;rotatable=0;points=[[0,0.5],[1,0.5]];portConstraint=eastwest;fontColor=#393C56;" parent="dPYi-wlbRLU9GC7x9vvH-2" vertex="1"><mxGeometry y="60" width="100" height="26" as="geometry"/></mxCell><mxCell id="dPYi-wlbRLU9GC7x9vvH-12" style="edgeStyle=orthogonalEdgeStyle;rounded=0;orthogonalLoop=1;jettySize=auto;html=1;entryX=0;entryY=0.5;entryDx=0;entryDy=0;endSize=11;startSize=11;endArrow=block;endFill=0;dashed=1;labelBackgroundColor=#F4F1DE;strokeColor=#E07A5F;fontColor=#393C56;" parent="WIyWlLk6GJQsqaUBKTNV-1" target="dPYi-wlbRLU9GC7x9vvH-1" edge="1"><mxGeometry relative="1" as="geometry"><mxPoint x="109" y="145" as="sourcePoint"/><mxPoint x="350" y="20" as="targetPoint"/><Array as="points"><mxPoint x="150" y="145"/><mxPoint x="150" y="115"/></Array></mxGeometry></mxCell><mxCell id="dPYi-wlbRLU9GC7x9vvH-13" value="Realizes" style="edgeLabel;html=1;align=center;verticalAlign=middle;resizable=0;points=[];fontColor=#393C56;labelBackgroundColor=#F4F1DE;" parent="dPYi-wlbRLU9GC7x9vvH-12" vertex="1" connectable="0"><mxGeometry x="0.2408" y="-2" relative="1" as="geometry"><mxPoint x="-2" y="10" as="offset"/></mxGeometry></mxCell><mxCell id="dPYi-wlbRLU9GC7x9vvH-14" value="&amp;lt;&amp;lt;Interface&amp;gt;&amp;gt;&lt;br&gt;&lt;b&gt;Command&lt;/b&gt;" style="swimlane;fontStyle=2;align=center;verticalAlign=top;childLayout=stackLayout;horizontal=1;startSize=40;horizontalStack=0;resizeParent=1;resizeParentMax=0;resizeLast=0;collapsible=1;marginBottom=0;html=1;fillColor=#F2CC8F;strokeColor=#E07A5F;fontColor=#393C56;" parent="WIyWlLk6GJQsqaUBKTNV-1" vertex="1"><mxGeometry x="110" y="240" width="160" height="70" as="geometry"/></mxCell><mxCell id="dPYi-wlbRLU9GC7x9vvH-15" value="+ execute()" style="text;strokeColor=none;fillColor=none;align=left;verticalAlign=top;spacingLeft=4;spacingRight=4;overflow=hidden;rotatable=0;points=[[0,0.5],[1,0.5]];portConstraint=eastwest;fontColor=#393C56;" parent="dPYi-wlbRLU9GC7x9vvH-14" vertex="1"><mxGeometry y="40" width="160" height="30" as="geometry"/></mxCell><mxCell id="dPYi-wlbRLU9GC7x9vvH-16" value="Print" style="swimlane;fontStyle=1;align=center;verticalAlign=top;childLayout=stackLayout;horizontal=1;startSize=26;horizontalStack=0;resizeParent=1;resizeParentMax=0;resizeLast=0;collapsible=1;marginBottom=0;fontColor=#393C56;fillColor=#F2CC8F;strokeColor=#E07A5F;" parent="WIyWlLk6GJQsqaUBKTNV-1" vertex="1"><mxGeometry x="35" y="344" width="140" height="86" as="geometry"/></mxCell><mxCell id="dPYi-wlbRLU9GC7x9vvH-17" value="- __executor = Executor" style="text;strokeColor=none;fillColor=none;align=left;verticalAlign=top;spacingLeft=4;spacingRight=4;overflow=hidden;rotatable=0;points=[[0,0.5],[1,0.5]];portConstraint=eastwest;fontColor=#393C56;" parent="dPYi-wlbRLU9GC7x9vvH-16" vertex="1"><mxGeometry y="26" width="140" height="26" as="geometry"/></mxCell><mxCell id="dPYi-wlbRLU9GC7x9vvH-18" value="" style="line;strokeWidth=1;fillColor=none;align=left;verticalAlign=middle;spacingTop=-1;spacingLeft=3;spacingRight=3;rotatable=0;labelPosition=right;points=[];portConstraint=eastwest;labelBackgroundColor=#F4F1DE;strokeColor=#E07A5F;fontColor=#393C56;" parent="dPYi-wlbRLU9GC7x9vvH-16" vertex="1"><mxGeometry y="52" width="140" height="8" as="geometry"/></mxCell><mxCell id="dPYi-wlbRLU9GC7x9vvH-19" value="+ execute()" style="text;strokeColor=none;fillColor=none;align=left;verticalAlign=top;spacingLeft=4;spacingRight=4;overflow=hidden;rotatable=0;points=[[0,0.5],[1,0.5]];portConstraint=eastwest;fontColor=#393C56;" parent="dPYi-wlbRLU9GC7x9vvH-16" vertex="1"><mxGeometry y="60" width="140" height="26" as="geometry"/></mxCell><mxCell id="dPYi-wlbRLU9GC7x9vvH-20" value="Save" style="swimlane;fontStyle=1;align=center;verticalAlign=top;childLayout=stackLayout;horizontal=1;startSize=26;horizontalStack=0;resizeParent=1;resizeParentMax=0;resizeLast=0;collapsible=1;marginBottom=0;fontColor=#393C56;fillColor=#F2CC8F;strokeColor=#E07A5F;" parent="WIyWlLk6GJQsqaUBKTNV-1" vertex="1"><mxGeometry x="205" y="344" width="140" height="86" as="geometry"/></mxCell><mxCell id="dPYi-wlbRLU9GC7x9vvH-21" value="- __executor = Executor" style="text;strokeColor=none;fillColor=none;align=left;verticalAlign=top;spacingLeft=4;spacingRight=4;overflow=hidden;rotatable=0;points=[[0,0.5],[1,0.5]];portConstraint=eastwest;fontColor=#393C56;" parent="dPYi-wlbRLU9GC7x9vvH-20" vertex="1"><mxGeometry y="26" width="140" height="26" as="geometry"/></mxCell><mxCell id="dPYi-wlbRLU9GC7x9vvH-22" value="" style="line;strokeWidth=1;fillColor=none;align=left;verticalAlign=middle;spacingTop=-1;spacingLeft=3;spacingRight=3;rotatable=0;labelPosition=right;points=[];portConstraint=eastwest;labelBackgroundColor=#F4F1DE;strokeColor=#E07A5F;fontColor=#393C56;" parent="dPYi-wlbRLU9GC7x9vvH-20" vertex="1"><mxGeometry y="52" width="140" height="8" as="geometry"/></mxCell><mxCell id="dPYi-wlbRLU9GC7x9vvH-23" value="+ execute()" style="text;strokeColor=none;fillColor=none;align=left;verticalAlign=top;spacingLeft=4;spacingRight=4;overflow=hidden;rotatable=0;points=[[0,0.5],[1,0.5]];portConstraint=eastwest;fontColor=#393C56;" parent="dPYi-wlbRLU9GC7x9vvH-20" vertex="1"><mxGeometry y="60" width="140" height="26" as="geometry"/></mxCell><mxCell id="dPYi-wlbRLU9GC7x9vvH-24" value="Handler" style="swimlane;fontStyle=1;align=center;verticalAlign=top;childLayout=stackLayout;horizontal=1;startSize=26;horizontalStack=0;resizeParent=1;resizeParentMax=0;resizeLast=0;collapsible=1;marginBottom=0;fontColor=#393C56;fillColor=#F2CC8F;strokeColor=#E07A5F;" parent="WIyWlLk6GJQsqaUBKTNV-1" vertex="1"><mxGeometry x="330" y="470" width="190" height="66" as="geometry"/></mxCell><mxCell id="dPYi-wlbRLU9GC7x9vvH-27" value="+ char_field_handler(CharFIeld)&#10;+ email_field_handler(EmailField)" style="text;strokeColor=none;fillColor=none;align=left;verticalAlign=top;spacingLeft=4;spacingRight=4;overflow=hidden;rotatable=0;points=[[0,0.5],[1,0.5]];portConstraint=eastwest;fontColor=#393C56;" parent="dPYi-wlbRLU9GC7x9vvH-24" vertex="1"><mxGeometry y="26" width="190" height="40" as="geometry"/></mxCell><mxCell id="dPYi-wlbRLU9GC7x9vvH-28" style="edgeStyle=orthogonalEdgeStyle;rounded=0;orthogonalLoop=1;jettySize=auto;html=1;exitX=0.75;exitY=0;exitDx=0;exitDy=0;entryX=1;entryY=0.5;entryDx=0;entryDy=0;endSize=11;startSize=11;endArrow=block;endFill=0;dashed=1;labelBackgroundColor=#F4F1DE;strokeColor=#E07A5F;fontColor=#393C56;" parent="WIyWlLk6GJQsqaUBKTNV-1" source="dPYi-wlbRLU9GC7x9vvH-20" target="dPYi-wlbRLU9GC7x9vvH-15" edge="1"><mxGeometry relative="1" as="geometry"><mxPoint x="320" y="446.5" as="sourcePoint"/><mxPoint x="300" y="360" as="targetPoint"/><Array as="points"><mxPoint x="310" y="295"/></Array></mxGeometry></mxCell><mxCell id="dPYi-wlbRLU9GC7x9vvH-29" value="Realizes" style="edgeLabel;html=1;align=center;verticalAlign=middle;resizable=0;points=[];fontColor=#393C56;labelBackgroundColor=#F4F1DE;" parent="dPYi-wlbRLU9GC7x9vvH-28" vertex="1" connectable="0"><mxGeometry x="0.2408" y="-2" relative="1" as="geometry"><mxPoint as="offset"/></mxGeometry></mxCell><mxCell id="dPYi-wlbRLU9GC7x9vvH-30" style="edgeStyle=orthogonalEdgeStyle;rounded=0;orthogonalLoop=1;jettySize=auto;html=1;exitX=0.25;exitY=0;exitDx=0;exitDy=0;entryX=0;entryY=0.25;entryDx=0;entryDy=0;endSize=11;startSize=11;endArrow=block;endFill=0;dashed=1;labelBackgroundColor=#F4F1DE;strokeColor=#E07A5F;fontColor=#393C56;" parent="WIyWlLk6GJQsqaUBKTNV-1" source="dPYi-wlbRLU9GC7x9vvH-16" target="dPYi-wlbRLU9GC7x9vvH-14" edge="1"><mxGeometry relative="1" as="geometry"><mxPoint x="90" y="426.5" as="sourcePoint"/><mxPoint x="70" y="340" as="targetPoint"/><Array as="points"><mxPoint x="55" y="258"/></Array></mxGeometry></mxCell><mxCell id="dPYi-wlbRLU9GC7x9vvH-31" value="Realizes" style="edgeLabel;html=1;align=center;verticalAlign=middle;resizable=0;points=[];fontColor=#393C56;labelBackgroundColor=#F4F1DE;" parent="dPYi-wlbRLU9GC7x9vvH-30" vertex="1" connectable="0"><mxGeometry x="0.2408" y="-2" relative="1" as="geometry"><mxPoint as="offset"/></mxGeometry></mxCell><mxCell id="dPYi-wlbRLU9GC7x9vvH-33" value="SendTo" style="swimlane;fontStyle=1;align=center;verticalAlign=top;childLayout=stackLayout;horizontal=1;startSize=26;horizontalStack=0;resizeParent=1;resizeParentMax=0;resizeLast=0;collapsible=1;marginBottom=0;fontColor=#393C56;fillColor=#F2CC8F;strokeColor=#E07A5F;" parent="WIyWlLk6GJQsqaUBKTNV-1" vertex="1"><mxGeometry x="370" y="344" width="140" height="86" as="geometry"/></mxCell><mxCell id="dPYi-wlbRLU9GC7x9vvH-34" value="- __executor = Executor" style="text;strokeColor=none;fillColor=none;align=left;verticalAlign=top;spacingLeft=4;spacingRight=4;overflow=hidden;rotatable=0;points=[[0,0.5],[1,0.5]];portConstraint=eastwest;fontColor=#393C56;" parent="dPYi-wlbRLU9GC7x9vvH-33" vertex="1"><mxGeometry y="26" width="140" height="26" as="geometry"/></mxCell><mxCell id="dPYi-wlbRLU9GC7x9vvH-35" value="" style="line;strokeWidth=1;fillColor=none;align=left;verticalAlign=middle;spacingTop=-1;spacingLeft=3;spacingRight=3;rotatable=0;labelPosition=right;points=[];portConstraint=eastwest;labelBackgroundColor=#F4F1DE;strokeColor=#E07A5F;fontColor=#393C56;" parent="dPYi-wlbRLU9GC7x9vvH-33" vertex="1"><mxGeometry y="52" width="140" height="8" as="geometry"/></mxCell><mxCell id="dPYi-wlbRLU9GC7x9vvH-36" value="+ execute()" style="text;strokeColor=none;fillColor=none;align=left;verticalAlign=top;spacingLeft=4;spacingRight=4;overflow=hidden;rotatable=0;points=[[0,0.5],[1,0.5]];portConstraint=eastwest;fontColor=#393C56;" parent="dPYi-wlbRLU9GC7x9vvH-33" vertex="1"><mxGeometry y="60" width="140" height="26" as="geometry"/></mxCell><mxCell id="dPYi-wlbRLU9GC7x9vvH-37" style="edgeStyle=orthogonalEdgeStyle;rounded=0;orthogonalLoop=1;jettySize=auto;html=1;exitX=1;exitY=0.25;exitDx=0;exitDy=0;endSize=11;startSize=11;endArrow=open;endFill=0;dashed=1;fontColor=#393C56;labelBackgroundColor=#F4F1DE;strokeColor=#E07A5F;" parent="WIyWlLk6GJQsqaUBKTNV-1" source="dPYi-wlbRLU9GC7x9vvH-33" target="dPYi-wlbRLU9GC7x9vvH-24" edge="1"><mxGeometry relative="1" as="geometry"><mxPoint x="9.200000000000045" y="680.0486666666666" as="sourcePoint"/><mxPoint x="-40" y="767.9166666666665" as="targetPoint"/><Array as="points"><mxPoint x="530" y="366"/><mxPoint x="530" y="450"/><mxPoint x="425" y="450"/></Array></mxGeometry></mxCell><mxCell id="dPYi-wlbRLU9GC7x9vvH-38" value="Uses" style="edgeLabel;html=1;align=center;verticalAlign=middle;resizable=0;points=[];fontColor=#393C56;labelBackgroundColor=#F4F1DE;" parent="dPYi-wlbRLU9GC7x9vvH-37" vertex="1" connectable="0"><mxGeometry x="0.2408" y="-2" relative="1" as="geometry"><mxPoint as="offset"/></mxGeometry></mxCell><mxCell id="dPYi-wlbRLU9GC7x9vvH-39" style="edgeStyle=orthogonalEdgeStyle;rounded=0;orthogonalLoop=1;jettySize=auto;html=1;exitX=0.25;exitY=0;exitDx=0;exitDy=0;entryX=1;entryY=0.5;entryDx=0;entryDy=0;endSize=11;startSize=11;endArrow=block;endFill=0;dashed=1;labelBackgroundColor=#F4F1DE;strokeColor=#E07A5F;fontColor=#393C56;" parent="WIyWlLk6GJQsqaUBKTNV-1" source="dPYi-wlbRLU9GC7x9vvH-33" target="dPYi-wlbRLU9GC7x9vvH-14" edge="1"><mxGeometry relative="1" as="geometry"><mxPoint x="414" y="326.5" as="sourcePoint"/><mxPoint x="374" y="240" as="targetPoint"/><Array as="points"><mxPoint x="399" y="344"/><mxPoint x="399" y="275"/></Array></mxGeometry></mxCell><mxCell id="dPYi-wlbRLU9GC7x9vvH-40" value="Realizes" style="edgeLabel;html=1;align=center;verticalAlign=middle;resizable=0;points=[];fontColor=#393C56;labelBackgroundColor=#F4F1DE;" parent="dPYi-wlbRLU9GC7x9vvH-39" vertex="1" connectable="0"><mxGeometry x="0.2408" y="-2" relative="1" as="geometry"><mxPoint as="offset"/></mxGeometry></mxCell><mxCell id="dPYi-wlbRLU9GC7x9vvH-41" value="CommandManager" style="swimlane;fontStyle=1;align=center;verticalAlign=top;childLayout=stackLayout;horizontal=1;startSize=26;horizontalStack=0;resizeParent=1;resizeParentMax=0;resizeLast=0;collapsible=1;marginBottom=0;fontColor=#393C56;fillColor=#F2CC8F;strokeColor=#E07A5F;" parent="WIyWlLk6GJQsqaUBKTNV-1" vertex="1"><mxGeometry x="460" y="170" width="180" height="100" as="geometry"/></mxCell><mxCell id="dPYi-wlbRLU9GC7x9vvH-42" value="+ command_list: list" style="text;strokeColor=none;fillColor=none;align=left;verticalAlign=top;spacingLeft=4;spacingRight=4;overflow=hidden;rotatable=0;points=[[0,0.5],[1,0.5]];portConstraint=eastwest;fontColor=#393C56;" parent="dPYi-wlbRLU9GC7x9vvH-41" vertex="1"><mxGeometry y="26" width="180" height="26" as="geometry"/></mxCell><mxCell id="dPYi-wlbRLU9GC7x9vvH-43" value="" style="line;strokeWidth=1;fillColor=none;align=left;verticalAlign=middle;spacingTop=-1;spacingLeft=3;spacingRight=3;rotatable=0;labelPosition=right;points=[];portConstraint=eastwest;labelBackgroundColor=#F4F1DE;strokeColor=#E07A5F;fontColor=#393C56;" parent="dPYi-wlbRLU9GC7x9vvH-41" vertex="1"><mxGeometry y="52" width="180" height="8" as="geometry"/></mxCell><mxCell id="dPYi-wlbRLU9GC7x9vvH-44" value="+ add_command(in Command)&#10;+ execute()" style="text;strokeColor=none;fillColor=none;align=left;verticalAlign=top;spacingLeft=4;spacingRight=4;overflow=hidden;rotatable=0;points=[[0,0.5],[1,0.5]];portConstraint=eastwest;fontColor=#393C56;" parent="dPYi-wlbRLU9GC7x9vvH-41" vertex="1"><mxGeometry y="60" width="180" height="40" as="geometry"/></mxCell><mxCell id="dPYi-wlbRLU9GC7x9vvH-45" value="Has" style="endArrow=open;html=1;endSize=12;startArrow=diamondThin;startSize=14;startFill=0;edgeStyle=orthogonalEdgeStyle;dashed=1;fontColor=#393C56;entryX=1;entryY=0;entryDx=0;entryDy=0;exitX=0;exitY=0.5;exitDx=0;exitDy=0;labelBackgroundColor=#F4F1DE;strokeColor=#E07A5F;" parent="WIyWlLk6GJQsqaUBKTNV-1" source="dPYi-wlbRLU9GC7x9vvH-42" target="dPYi-wlbRLU9GC7x9vvH-14" edge="1"><mxGeometry relative="1" as="geometry"><mxPoint x="590" y="330" as="sourcePoint"/><mxPoint x="740" y="386" as="targetPoint"/><Array as="points"><mxPoint x="420" y="209"/><mxPoint x="420" y="240"/></Array></mxGeometry></mxCell><mxCell id="dPYi-wlbRLU9GC7x9vvH-46" value="1" style="edgeLabel;resizable=0;html=1;align=left;verticalAlign=top;labelBackgroundColor=#F4F1DE;fontColor=#393C56;" parent="dPYi-wlbRLU9GC7x9vvH-45" connectable="0" vertex="1"><mxGeometry x="-1" relative="1" as="geometry"><mxPoint x="-20" y="-23.97" as="offset"/></mxGeometry></mxCell><mxCell id="dPYi-wlbRLU9GC7x9vvH-47" value="0...n" style="edgeLabel;resizable=0;html=1;align=right;verticalAlign=top;labelBackgroundColor=#F4F1DE;fontColor=#393C56;" parent="dPYi-wlbRLU9GC7x9vvH-45" connectable="0" vertex="1"><mxGeometry x="1" relative="1" as="geometry"><mxPoint x="30" y="-24" as="offset"/></mxGeometry></mxCell><mxCell id="dPYi-wlbRLU9GC7x9vvH-48" style="edgeStyle=orthogonalEdgeStyle;rounded=0;orthogonalLoop=1;jettySize=auto;html=1;exitX=0.5;exitY=0;exitDx=0;exitDy=0;entryX=0.563;entryY=0.967;entryDx=0;entryDy=0;endSize=11;startSize=11;endArrow=open;endFill=0;dashed=1;fontColor=#393C56;entryPerimeter=0;labelBackgroundColor=#F4F1DE;strokeColor=#E07A5F;" parent="WIyWlLk6GJQsqaUBKTNV-1" source="dPYi-wlbRLU9GC7x9vvH-14" target="dPYi-wlbRLU9GC7x9vvH-1" edge="1"><mxGeometry relative="1" as="geometry"><mxPoint x="579.2" y="70.04866666666658" as="sourcePoint"/><mxPoint x="530" y="157.91666666666652" as="targetPoint"/></mxGeometry></mxCell><mxCell id="dPYi-wlbRLU9GC7x9vvH-49" value="Ask for" style="edgeLabel;html=1;align=center;verticalAlign=middle;resizable=0;points=[];fontColor=#393C56;labelBackgroundColor=#F4F1DE;" parent="dPYi-wlbRLU9GC7x9vvH-48" vertex="1" connectable="0"><mxGeometry x="0.2408" y="-2" relative="1" as="geometry"><mxPoint x="-24" y="2" as="offset"/></mxGeometry></mxCell><mxCell id="dPYi-wlbRLU9GC7x9vvH-50" value="Client" style="html=1;fillColor=#F2CC8F;strokeColor=#E07A5F;fontColor=#393C56;" parent="WIyWlLk6GJQsqaUBKTNV-1" vertex="1"><mxGeometry x="440" y="60" width="110" height="50" as="geometry"/></mxCell><mxCell id="dPYi-wlbRLU9GC7x9vvH-6" value="EmailField" style="swimlane;fontStyle=1;align=center;verticalAlign=top;childLayout=stackLayout;horizontal=1;startSize=26;horizontalStack=0;resizeParent=1;resizeParentMax=0;resizeLast=0;collapsible=1;marginBottom=0;fontColor=#393C56;fillColor=#F2CC8F;strokeColor=#E07A5F;" parent="WIyWlLk6GJQsqaUBKTNV-1" vertex="1"><mxGeometry x="10" y="110" width="100" height="86" as="geometry"/></mxCell><mxCell id="dPYi-wlbRLU9GC7x9vvH-7" value="+ text: str" style="text;strokeColor=none;fillColor=none;align=left;verticalAlign=top;spacingLeft=4;spacingRight=4;overflow=hidden;rotatable=0;points=[[0,0.5],[1,0.5]];portConstraint=eastwest;fontColor=#393C56;" parent="dPYi-wlbRLU9GC7x9vvH-6" vertex="1"><mxGeometry y="26" width="100" height="26" as="geometry"/></mxCell><mxCell id="dPYi-wlbRLU9GC7x9vvH-8" value="" style="line;strokeWidth=1;fillColor=none;align=left;verticalAlign=middle;spacingTop=-1;spacingLeft=3;spacingRight=3;rotatable=0;labelPosition=right;points=[];portConstraint=eastwest;labelBackgroundColor=#F4F1DE;strokeColor=#E07A5F;fontColor=#393C56;" parent="dPYi-wlbRLU9GC7x9vvH-6" vertex="1"><mxGeometry y="52" width="100" height="8" as="geometry"/></mxCell><mxCell id="dPYi-wlbRLU9GC7x9vvH-9" value="+ get_data(): str" style="text;strokeColor=none;fillColor=none;align=left;verticalAlign=top;spacingLeft=4;spacingRight=4;overflow=hidden;rotatable=0;points=[[0,0.5],[1,0.5]];portConstraint=eastwest;fontColor=#393C56;" parent="dPYi-wlbRLU9GC7x9vvH-6" vertex="1"><mxGeometry y="60" width="100" height="26" as="geometry"/></mxCell><mxCell id="dPYi-wlbRLU9GC7x9vvH-51" style="edgeStyle=orthogonalEdgeStyle;rounded=0;orthogonalLoop=1;jettySize=auto;html=1;exitX=1;exitY=0.25;exitDx=0;exitDy=0;entryX=0;entryY=0.25;entryDx=0;entryDy=0;endSize=11;startSize=11;endArrow=block;endFill=0;dashed=1;labelBackgroundColor=#F4F1DE;strokeColor=#E07A5F;fontColor=#393C56;" parent="WIyWlLk6GJQsqaUBKTNV-1" source="dPYi-wlbRLU9GC7x9vvH-2" target="dPYi-wlbRLU9GC7x9vvH-0" edge="1"><mxGeometry relative="1" as="geometry"><mxPoint x="60" y="14" as="sourcePoint"/><mxPoint x="210" y="107.5" as="targetPoint"/><Array as="points"/></mxGeometry></mxCell><mxCell id="dPYi-wlbRLU9GC7x9vvH-52" value="Realizes" style="edgeLabel;html=1;align=center;verticalAlign=middle;resizable=0;points=[];fontColor=#393C56;labelBackgroundColor=#F4F1DE;" parent="dPYi-wlbRLU9GC7x9vvH-51" vertex="1" connectable="0"><mxGeometry x="0.2408" y="-2" relative="1" as="geometry"><mxPoint y="-19" as="offset"/></mxGeometry></mxCell><mxCell id="dPYi-wlbRLU9GC7x9vvH-55" value="Use" style="endArrow=open;endSize=12;dashed=1;html=1;entryX=0.856;entryY=-0.029;entryDx=0;entryDy=0;entryPerimeter=0;exitX=0;exitY=1;exitDx=0;exitDy=0;labelBackgroundColor=#F4F1DE;strokeColor=#E07A5F;fontColor=#393C56;" parent="WIyWlLk6GJQsqaUBKTNV-1" source="dPYi-wlbRLU9GC7x9vvH-50" target="dPYi-wlbRLU9GC7x9vvH-14" edge="1"><mxGeometry width="160" relative="1" as="geometry"><mxPoint x="670" y="70" as="sourcePoint"/><mxPoint x="830" y="70" as="targetPoint"/></mxGeometry></mxCell><mxCell id="dPYi-wlbRLU9GC7x9vvH-56" value="Use" style="endArrow=open;endSize=12;dashed=1;html=1;entryX=1;entryY=0.25;entryDx=0;entryDy=0;exitX=0;exitY=0.5;exitDx=0;exitDy=0;labelBackgroundColor=#F4F1DE;strokeColor=#E07A5F;fontColor=#393C56;" parent="WIyWlLk6GJQsqaUBKTNV-1" source="dPYi-wlbRLU9GC7x9vvH-50" target="dPYi-wlbRLU9GC7x9vvH-0" edge="1"><mxGeometry width="160" relative="1" as="geometry"><mxPoint x="450" y="120" as="sourcePoint"/><mxPoint x="256.96000000000004" y="247.97000000000003" as="targetPoint"/></mxGeometry></mxCell><mxCell id="dPYi-wlbRLU9GC7x9vvH-57" value="Use" style="endArrow=open;endSize=12;dashed=1;html=1;entryX=0.25;entryY=0;entryDx=0;entryDy=0;exitX=0.5;exitY=1;exitDx=0;exitDy=0;labelBackgroundColor=#F4F1DE;strokeColor=#E07A5F;fontColor=#393C56;" parent="WIyWlLk6GJQsqaUBKTNV-1" source="dPYi-wlbRLU9GC7x9vvH-50" target="dPYi-wlbRLU9GC7x9vvH-41" edge="1"><mxGeometry width="160" relative="1" as="geometry"><mxPoint x="450" y="95" as="sourcePoint"/><mxPoint x="355" y="87.5" as="targetPoint"/></mxGeometry></mxCell></root></mxGraphModel></diagram></mxfile>